<svg id="eUGmbVLjtpz1" xmlns="http://www.w3.org/2000/svg" xmlns:xlink="http://www.w3.org/1999/xlink" viewBox="0 0 300 300" shape-rendering="geometricPrecision" text-rendering="geometricPrecision" project-id="5e7a89ca3f3e4dcd95ac3fe76caba90b" export-id="506d0f1050bc49d58fefb6c2511b23aa" cached="false"><line x1="0" y1="91.590634" x2="0" y2="-91.590634" transform="translate(150 132.014055)" fill="none" stroke="rgba(23,23,23,0.67)" stroke-width="4"/><line x1="52.593509" y1="-92.118268" x2="-52.593508" y2="92.118269" transform="translate(97.406492 131.486421)" fill="none" stroke="rgba(23,23,23,0.67)" stroke-width="4"/><line x1="-52.669521" y1="-92.118268" x2="52.669522" y2="92.118269" transform="translate(202.669522 131.486421)" fill="none" stroke="rgba(23,23,23,0.67)" stroke-width="4"/><line x1="-52.057623" y1="48.278533" x2="52.057623" y2="-48.278533" transform="translate(203.281421 125.63635)" fill="none" stroke="rgba(23,23,23,0.67)" stroke-width="4"/><line x1="-53.205407" y1="-48.496255" x2="53.205407" y2="48.496255" transform="translate(98.018391 125.418628)" fill="none" stroke="rgba(23,23,23,0.67)" stroke-width="4"/><line x1="-53.205407" y1="24.844903" x2="53.205407" y2="-24.844903" transform="translate(98.018391 198.759786)" fill="none" stroke="rgba(23,23,23,0.67)" stroke-width="4"/><line x1="52.057623" y1="24.844903" x2="-52.057623" y2="-24.844903" transform="translate(203.281421 198.759786)" fill="none" stroke="rgba(23,23,23,0.67)" stroke-width="4"/><line x1="26.296733" y1="60.964801" x2="-26.296733" y2="-60.964801" transform="translate(71.109759 137.794985)" fill="none" stroke="rgba(23,23,23,0.67)" stroke-width="4"/><line x1="-26.258727" y1="60.700985" x2="26.258727" y2="-60.700984" transform="translate(228.928249 138.058802)" fill="none" stroke="rgba(23,23,23,0.67)" stroke-width="4"/><line x1="-0.076034" y1="-73.123436" x2="0.076034" y2="73.123436" transform="translate(255.26301 150.481254)" fill="none" stroke="rgba(23,23,23,0.67)" stroke-width="4"/><line x1="-0.000021" y1="-73.341158" x2="0.000021" y2="73.341158" transform="translate(44.813005 150.263531)" fill="none" stroke="rgba(23,23,23,0.67)" stroke-width="4"/><line x1="-26.296755" y1="-12.422451" x2="26.296754" y2="12.422451" transform="translate(123.703247 211.182238)" fill="none" stroke="rgba(23,23,23,0.67)" stroke-width="4"/><line x1="-26.64071" y1="12.422452" x2="26.64071" y2="-12.422451" transform="translate(176.640711 211.182238)" fill="none" stroke="rgba(23,23,23,0.67)" stroke-width="4"/></svg>
